HIERARCHY
ROOT Root
{
  OFFSET 0.0 0.0 0.0
  CHANNELS 6 Xposition Yposition Zposition Zrotation Yrotation Xrotation
  JOINT Hips
  {
    OFFSET 0.0 100.0 0.0
    CHANNELS 6 Xposition Yposition Zposition Zrotation Yrotation Xrotation
    JOINT Spine1
    {
      OFFSET 5.003913 -0.037094 -0.013727
      CHANNELS 3 Zrotation Yrotation Xrotation
      JOINT Spine2
      {
        OFFSET 7.125363 -1e-06 0.0
        CHANNELS 3 Zrotation Yrotation Xrotation
        JOINT Chest
        {
          OFFSET 7.594027 1e-06 0.0
          CHANNELS 3 Zrotation Yrotation Xrotation
          JOINT Neck1
          {
            OFFSET 26.313086 -0.460272 -0.181672
            CHANNELS 3 Zrotation Yrotation Xrotation
            JOINT Neck2
            {
              OFFSET 8.045911 0.0 0.0
              CHANNELS 3 Zrotation Yrotation Xrotation
              JOINT Head
              {
                OFFSET 6.432774 0.0 0.0
                CHANNELS 3 Zrotation Yrotation Xrotation
                JOINT HeadEnd
                {
                  OFFSET 16.169773 0.06451 0.00362
                  CHANNELS 3 Zrotation Yrotation Xrotation
                }
                JOINT Jaw
                {
                  OFFSET 0.108741 3.12938 0.002639
                  CHANNELS 3 Zrotation Yrotation Xrotation
                }
                JOINT LeftEye
                {
                  OFFSET 4.45173 8.166359 3.206392
                  CHANNELS 3 Zrotation Yrotation Xrotation
                }
                JOINT RightEye
                {
                  OFFSET 4.436895 8.135758 -3.222429
                  CHANNELS 3 Zrotation Yrotation Xrotation
                }
              }
            }
          }
          JOINT LeftShoulder
          {
            OFFSET 23.218927 5.195579 1.621656
            CHANNELS 3 Zrotation Yrotation Xrotation
            JOINT LeftArm
            {
              OFFSET 15.902118 2e-06 -2e-06
              CHANNELS 3 Zrotation Yrotation Xrotation
              JOINT LeftForeArm
              {
                OFFSET 28.739307 0.0 -1e-06
                CHANNELS 3 Zrotation Yrotation Xrotation
                JOINT LeftHand
                {
                  OFFSET 27.093981 -4e-06 0.0
                  CHANNELS 3 Zrotation Yrotation Xrotation
                  JOINT LeftHandThumb1
                  {
                    OFFSET 2.276781 3.380274 0.83384
                    CHANNELS 3 Zrotation Yrotation Xrotation
                    JOINT LeftHandThumb2
                    {
                      OFFSET 4.705309 -1e-06 -1e-06
                      CHANNELS 3 Zrotation Yrotation Xrotation
                      JOINT LeftHandThumb3
                      {
                        OFFSET 2.798515 0.0 3e-06
                        CHANNELS 3 Zrotation Yrotation Xrotation
                        JOINT LeftHandThumbEnd
                        {
                          OFFSET 3.180793 4e-06 -4e-06
                          CHANNELS 3 Zrotation Yrotation Xrotation
                        }
                      }
                    }
                  }
                  JOINT LeftHandIndex1
                  {
                    OFFSET 3.247786 2.352677 0.137192
                    CHANNELS 3 Zrotation Yrotation Xrotation
                    JOINT LeftHandIndex2
                    {
                      OFFSET 6.367095 1e-06 0.0
                      CHANNELS 3 Zrotation Yrotation Xrotation
                      JOINT LeftHandIndex3
                      {
                        OFFSET 3.662364 0.0 0.0
                        CHANNELS 3 Zrotation Yrotation Xrotation
                        JOINT LeftHandIndex4
                        {
                          OFFSET 2.329242 4e-06 -4e-06
                          CHANNELS 3 Zrotation Yrotation Xrotation
                          JOINT LeftHandIndexEnd
                          {
                            OFFSET 2.767823 1e-06 0.0
                            CHANNELS 3 Zrotation Yrotation Xrotation
                          }
                        }
                      }
                    }
                  }
                  JOINT LeftHandMiddle1
                  {
                    OFFSET 3.163612 0.945023 -0.406112
                    CHANNELS 3 Zrotation Yrotation Xrotation
                    JOINT LeftHandMiddle2
                    {
                      OFFSET 6.276789 3e-06 0.0
                      CHANNELS 3 Zrotation Yrotation Xrotation
                      JOINT LeftHandMiddle3
                      {
                        OFFSET 4.35652 -1e-06 4e-06
                        CHANNELS 3 Zrotation Yrotation Xrotation
                        JOINT LeftHandMiddle4
                        {
                          OFFSET 2.996877 0.0 8e-06
                          CHANNELS 3 Zrotation Yrotation Xrotation
                          JOINT LeftHandMiddleEnd
                          {
                            OFFSET 2.323256 3e-06 -4e-06
                            CHANNELS 3 Zrotation Yrotation Xrotation
                          }
                        }
                      }
                    }
                  }
                  JOINT LeftHandRing1
                  {
                    OFFSET 2.882606 -0.309162 0.107445
                    CHANNELS 3 Zrotation Yrotation Xrotation
                    JOINT LeftHandRing2
                    {
                      OFFSET 6.033198 0.0 4e-06
                      CHANNELS 3 Zrotation Yrotation Xrotation
                      JOINT LeftHandRing3
                      {
                        OFFSET 4.350578 3e-06 0.0
                        CHANNELS 3 Zrotation Yrotation Xrotation
                        JOINT LeftHandRing4
                        {
                          OFFSET 2.651321 2e-06 -7e-06
                          CHANNELS 3 Zrotation Yrotation Xrotation
                          JOINT LeftHandRingEnd
                          {
                            OFFSET 1.937663 1e-06 -4e-06
                            CHANNELS 3 Zrotation Yrotation Xrotation
                          }
                        }
                      }
                    }
                  }
                  JOINT LeftHandPinky1
                  {
                    OFFSET 2.865315 -1.525436 0.575687
                    CHANNELS 3 Zrotation Yrotation Xrotation
                    JOINT LeftHandPinky2
                    {
                      OFFSET 5.54936 1e-06 -8e-06
                      CHANNELS 3 Zrotation Yrotation Xrotation
                      JOINT LeftHandPinky3
                      {
                        OFFSET 3.070974 0.0 -4e-06
                        CHANNELS 3 Zrotation Yrotation Xrotation
                        JOINT LeftHandPinky4
                        {
                          OFFSET 1.549672 1e-06 0.0
                          CHANNELS 3 Zrotation Yrotation Xrotation
                          JOINT LeftHandPinkyEnd
                          {
                            OFFSET 1.952123 0.0 0.0
                            CHANNELS 3 Zrotation Yrotation Xrotation
                          }
                        }
                      }
                    }
                  }
                }
              }
            }
          }
          JOINT RightShoulder
          {
            OFFSET 23.161716 5.296122 -1.380114
            CHANNELS 3 Zrotation Yrotation Xrotation
            JOINT RightArm
            {
              OFFSET -16.027195 -2e-06 1.1e-05
              CHANNELS 3 Zrotation Yrotation Xrotation
              JOINT RightForeArm
              {
                OFFSET -28.736639 4e-06 2e-06
                CHANNELS 3 Zrotation Yrotation Xrotation
                JOINT RightHand
                {
                  OFFSET -27.133619 6e-06 0.0
                  CHANNELS 3 Zrotation Yrotation Xrotation
                  JOINT RightHandThumb1
                  {
                    OFFSET -2.274328 -3.351035 -0.83067
                    CHANNELS 3 Zrotation Yrotation Xrotation
                    JOINT RightHandThumb2
                    {
                      OFFSET -4.703594 -3e-06 2e-06
                      CHANNELS 3 Zrotation Yrotation Xrotation
                      JOINT RightHandThumb3
                      {
                        OFFSET -2.794935 -4e-06 -3e-06
                        CHANNELS 3 Zrotation Yrotation Xrotation
                        JOINT RightHandThumbEnd
                        {
                          OFFSET -3.183852 4e-06 1e-06
                          CHANNELS 3 Zrotation Yrotation Xrotation
                        }
                      }
                    }
                  }
                  JOINT RightHandIndex1
                  {
                    OFFSET -3.253496 -2.33755 -0.127667
                    CHANNELS 3 Zrotation Yrotation Xrotation
                    JOINT RightHandIndex2
                    {
                      OFFSET -6.344434 0.0 0.0
                      CHANNELS 3 Zrotation Yrotation Xrotation
                      JOINT RightHandIndex3
                      {
                        OFFSET -3.654871 0.0 -8e-06
                        CHANNELS 3 Zrotation Yrotation Xrotation
                        JOINT RightHandIndex4
                        {
                          OFFSET -2.327586 -1e-06 0.0
                          CHANNELS 3 Zrotation Yrotation Xrotation
                          JOINT RightHandIndexEnd
                          {
                            OFFSET -2.770001 3e-06 8e-06
                            CHANNELS 3 Zrotation Yrotation Xrotation
                          }
                        }
                      }
                    }
                  }
                  JOINT RightHandMiddle1
                  {
                    OFFSET -3.168223 -0.944764 0.411762
                    CHANNELS 3 Zrotation Yrotation Xrotation
                    JOINT RightHandMiddle2
                    {
                      OFFSET -6.266691 -1e-06 -4e-06
                      CHANNELS 3 Zrotation Yrotation Xrotation
                      JOINT RightHandMiddle3
                      {
                        OFFSET -4.348901 0.0 0.0
                        CHANNELS 3 Zrotation Yrotation Xrotation
                        JOINT RightHandMiddle4
                        {
                          OFFSET -3.00024 2e-06 -4e-06
                          CHANNELS 3 Zrotation Yrotation Xrotation
                          JOINT RightHandMiddleEnd
                          {
                            OFFSET -2.321477 -4e-06 -4e-06
                            CHANNELS 3 Zrotation Yrotation Xrotation
                          }
                        }
                      }
                    }
                  }
                  JOINT RightHandRing1
                  {
                    OFFSET -2.885654 0.293261 -0.119232
                    CHANNELS 3 Zrotation Yrotation Xrotation
                    JOINT RightHandRing2
                    {
                      OFFSET -6.032835 -1e-06 -4e-06
                      CHANNELS 3 Zrotation Yrotation Xrotation
                      JOINT RightHandRing3
                      {
                        OFFSET -4.33881 0.0 -4e-06
                        CHANNELS 3 Zrotation Yrotation Xrotation
                        JOINT RightHandRing4
                        {
                          OFFSET -2.654903 -4e-06 -4e-06
                          CHANNELS 3 Zrotation Yrotation Xrotation
                          JOINT RightHandRingEnd
                          {
                            OFFSET -1.935122 0.0 4e-06
                            CHANNELS 3 Zrotation Yrotation Xrotation
                          }
                        }
                      }
                    }
                  }
                  JOINT RightHandPinky1
                  {
                    OFFSET -2.866241 1.503904 -0.60527
                    CHANNELS 3 Zrotation Yrotation Xrotation
                    JOINT RightHandPinky2
                    {
                      OFFSET -5.553177 -2e-06 0.0
                      CHANNELS 3 Zrotation Yrotation Xrotation
                      JOINT RightHandPinky3
                      {
                        OFFSET -3.062664 -1e-06 -4e-06
                        CHANNELS 3 Zrotation Yrotation Xrotation
                        JOINT RightHandPinky4
                        {
                          OFFSET -1.546529 2e-06 4e-06
                          CHANNELS 3 Zrotation Yrotation Xrotation
                          JOINT RightHandPinkyEnd
                          {
                            OFFSET -1.952341 0.0 -4e-06
                            CHANNELS 3 Zrotation Yrotation Xrotation
                          }
                        }
                      }
                    }
                  }
                }
              }
            }
          }
        }
      }
    }
    JOINT LeftLeg
    {
      OFFSET -8.443107 2.567604 10.043214
      CHANNELS 3 Zrotation Yrotation Xrotation
      JOINT LeftShin
      {
        OFFSET 43.229198 1e-06 -1e-06
        CHANNELS 3 Zrotation Yrotation Xrotation
        JOINT LeftFoot
        {
          OFFSET 42.298611 1e-06 1e-06
          CHANNELS 3 Zrotation Yrotation Xrotation
          JOINT LeftToeBase
          {
            OFFSET 14.165858 1e-06 0.0
            CHANNELS 3 Zrotation Yrotation Xrotation
            JOINT LeftToeEnd
            {
              OFFSET 6.7141 -0.234461 0.0
              CHANNELS 3 Zrotation Yrotation Xrotation
            }
          }
        }
      }
    }
    JOINT RightLeg
    {
      OFFSET -8.303923 2.592729 -10.047278
      CHANNELS 3 Zrotation Yrotation Xrotation
      JOINT RightShin
      {
        OFFSET -43.369682 0.0 1e-06
        CHANNELS 3 Zrotation Yrotation Xrotation
        JOINT RightFoot
        {
          OFFSET -42.260784 4e-06 2e-06
          CHANNELS 3 Zrotation Yrotation Xrotation
          JOINT RightToeBase
          {
            OFFSET -14.222245 -2e-06 -1e-06
            CHANNELS 3 Zrotation Yrotation Xrotation
            JOINT RightToeEnd
            {
              OFFSET -6.660062 0.232574 -2e-06
              CHANNELS 3 Zrotation Yrotation Xrotation
            }
          }
        }
      }
    }
  }
}
MOTION
Frames: 4
Frame Time: 0.03333333333333333
0.0 0.0 0.0 0.0 -0.0 0.0 -5.032927 99.842522 -12.208438 87.689804 0.236979 -6.710281 -4.858983 -0.095681 -0.326453 -12.310617 -0.952001 -1.072229 21.501017 0.002212 -3.349483 17.995388 0.39865 3.112164 -2.530971 -0.588419 0.285424 -27.874329 0.728791 0.138939 0.000908 -0.000108 -0.004021 -0.02161 -0.025153 -0.064279 0.113963 -0.050546 -0.035254 0.073634 0.000753 -0.08187 -152.339584 -68.323059 165.862915 16.747929 -51.444958 20.858231 34.110847 0.594998 -0.153302 1.440834 2.636017 12.701311 17.610228 -26.323444 52.432034 -19.48842 -14.400631 29.411034 0.001008 -8.77008 0.005197 16.076279 -18.363302 6.414203 -0.608103 -1.793137 -3.899072 -4.813469 -11.059826 -2.931455 0.004848 -21.003128 0.006928 -5.004374 -25.038759 -4.044132 0.004161 -0.008264 -0.001225 -10.638101 -5.691764 -3.567093 10.567063 -17.921265 -3.102861 0.00953 -13.818721 -0.007892 -0.465516 -31.203371 -4.044852 -11.61018 -59.779484 8.070233 -13.983347 -7.15756 -2.862751 13.767364 -8.399076 -3.234626 0.357747 -34.226135 0.784577 -0.958819 -17.743671 2.616989 0.0082 -0.005794 -0.013722 -17.350643 -20.112492 -4.192152 21.748129 -1.633478 3.862273 -0.001698 -6.343721 -0.015873 -1.698368 -22.61668 -6.16262 1e-06 -0.007387 -0.009221 17.827271 -63.604012 178.757004 32.419689 -46.604794 10.898494 25.590431 -0.758742 0.032172 -2.967315 -1.896024 0.77605 22.214119 -20.38884 49.99284 -16.690125 -16.764467 28.495657 0.0144 -12.702427 -0.013317 16.335907 -17.906879 2.598328 -0.111514 -1.515489 -4.270064 -5.044258 -5.618639 -2.954887 -0.004381 -11.014215 -0.011766 -6.12296 -15.900134 -3.826967 0.000123 0.001299 -0.001588 -10.296047 -5.685904 -4.334483 11.026284 -11.305632 -2.358735 -1.401651 -14.231702 -6.334414 -0.646348 -26.94515 -3.816516 -4.348163 -49.73064 -3.664737 -13.734432 -7.372922 -3.720872 18.143658 -14.049506 -3.223013 -0.004903 -18.802656 0.003369 -0.427851 -8.465837 2.540658 0.002098 -0.001758 0.011966 -15.95627 -20.117786 -5.478245 30.431423 -7.179843 1.747992 0.000588 -8.178541 0.011811 -1.882349 -22.872738 -6.163228 -0.000382 -0.003628 -0.002882 -178.921753 -2.122058 -12.520966 13.576962 0.10756 -0.063094 -80.823372 -3.214279 -5.593918 -5.453004 1.538428 2.127256 -0.993872 0.000771 -0.000712 -2.161836 -5.59598 -3.29173 15.389511 0.061569 -0.170096 -78.84304 -6.836358 -6.238156 -5.290095 0.681529 1.697585 -1.00027 0.006312 0.000584 
0.0 0.0 0.0 0.0 -0.0 0.0 -5.277374 99.867752 -12.429282 87.704224 0.08105 -6.507215 -4.989386 -0.082067 -0.336338 -12.33208 -0.934833 -1.01162 21.30549 -0.225018 -3.399501 18.224922 0.541608 3.158521 -2.492902 -0.603351 0.113259 -27.603888 0.745876 0.187895 0.000829 -0.000517 -0.002029 -0.021577 -0.026346 -0.065732 0.119248 -0.039702 -0.045074 0.083079 -0.014962 -0.086743 -152.289795 -68.299606 165.85405 15.842109 -51.673157 21.197245 33.485115 0.65709 -0.133096 0.968746 2.415629 12.478836 17.653761 -26.32292 52.457527 -19.500885 -14.43296 29.422115 0.004096 -8.790432 -0.003295 16.107191 -18.396797 6.42748 -0.606604 -1.791357 -3.885592 -4.822017 -11.065202 -2.944895 -0.002296 -21.005283 0.001356 -5.017627 -25.076635 -4.043975 -0.002286 0.009658 -0.001207 -10.653552 -5.693513 -3.546429 10.588458 -17.949072 -3.127318 -0.001675 -13.842811 -0.012855 -0.511042 -31.215364 -4.031721 -11.66979 -59.873253 8.101732 -14.011177 -7.154541 -2.867636 13.800558 -8.41139 -3.216451 0.353923 -34.243061 0.751141 -0.962729 -17.764425 2.588674 -0.000295 0.019541 0.014391 -17.383423 -20.11186 -4.186302 21.787361 -1.633351 3.87468 0.003261 -6.345337 -0.012776 -1.709532 -22.646765 -6.204561 0.006226 0.001243 -0.004586 18.192051 -63.583584 178.360809 32.409679 -46.959 11.062742 25.818289 -0.761322 0.033118 -2.899828 -2.032789 0.776544 22.23694 -20.349766 49.94368 -16.699781 -16.753075 28.463907 0.013482 -12.70689 -0.017339 16.397884 -17.921474 2.602528 -0.106359 -1.510203 -4.276684 -5.047818 -5.615077 -2.940056 -0.007588 -11.009696 -0.003769 -6.116712 -15.904586 -3.85104 -0.001609 0.006346 0.001106 -10.297731 -5.678548 -4.346526 11.030124 -11.312693 -2.355096 -1.401615 -14.239608 -6.312549 -0.639586 -26.938828 -3.828409 -4.424653 -49.71352 -3.637279 -13.733515 -7.3683 -3.711201 18.157511 -14.039384 -3.231637 -0.013534 -18.789989 0.009467 -0.419931 -8.469156 2.541847 0.0022 -0.007406 -0.003849 -15.957614 -20.10935 -5.463894 30.451084 -7.190941 1.756629 0.004706 -8.16447 -0.009624 -1.877951 -22.843094 -6.185777 -0.001986 -0.015729 0.009556 -178.66629 -2.40593 -12.330103 13.305587 0.123135 -0.102762 -80.829948 -2.920849 -5.653554 -5.462234 1.519412 2.121834 -0.993577 -0.005169 -6e-05 -1.684929 -5.286157 -3.537706 14.813852 0.065482 -0.171147 -78.65937 -6.974067 -6.112135 -5.331406 0.659694 1.689416 -1.001354 -0.0096 -0.002186 
0.0 0.0 0.0 0.0 -0.0 0.0 -5.479396 99.881836 -12.665478 87.689476 -0.088866 -6.304989 -5.071146 -0.075769 -0.33311 -12.340084 -0.923896 -0.974159 21.153189 -0.41408 -3.409365 18.351534 0.684035 3.15869 -2.486651 -0.574308 0.071011 -27.346172 0.727027 0.215909 0.003395 -0.000816 -0.001534 -0.034297 -0.028007 -0.065516 0.101902 -0.030617 -0.036144 0.065302 -0.025997 -0.078555 -152.409805 -68.301567 166.045303 15.051181 -51.746841 21.681953 33.148964 0.610421 -0.113445 0.392134 1.945934 12.55129 17.651266 -26.351698 52.446453 -19.467783 -14.382089 29.409664 -0.002188 -8.772181 0.010862 16.180201 -18.35302 6.411407 -0.609384 -1.804136 -3.876269 -4.799973 -11.047505 -2.942398 0.007931 -20.980457 0.004191 -5.002919 -25.006336 -4.036825 -0.004133 0.00737 0.004695 -10.633241 -5.695395 -3.555484 10.579672 -17.944426 -3.106834 6.6e-05 -13.830908 0.009875 -0.49582 -31.218313 -4.003932 -11.718364 -59.911915 8.301356 -13.978791 -7.151721 -2.866234 13.776564 -8.414324 -3.201836 0.364168 -34.233227 0.767846 -0.946629 -17.742449 2.596747 -0.010774 -0.010452 -0.002501 -17.349098 -20.113409 -4.187353 21.77202 -1.647391 3.882147 0.000139 -6.344123 -0.011648 -1.68801 -22.638262 -6.187421 0.001882 0.007841 0.003921 18.420473 -63.551865 178.137115 32.292244 -47.006069 11.457452 26.150999 -0.758763 0.06018 -2.928975 -2.234832 0.78541 22.167114 -20.350029 49.90448 -16.701294 -16.711939 28.433767 0.00252 -12.658605 -0.00261 16.368753 -17.869946 2.61243 -0.094599 -1.512512 -4.265759 -5.030251 -5.614114 -2.966192 0.003488 -11.024581 -0.000267 -6.098973 -15.892852 -3.844385 -4e-05 -0.006205 0.00656 -10.260824 -5.67044 -4.329593 11.029352 -11.305795 -2.384515 -1.376788 -14.239631 -6.311037 -0.605049 -26.942549 -3.84272 -4.458988 -49.787537 -3.524644 -13.674809 -7.353195 -3.72262 18.119444 -14.064984 -3.238793 0.014756 -18.782324 -0.001216 -0.418551 -8.466514 2.527042 0.004497 -0.005079 0.007315 -15.873505 -20.088539 -5.467242 30.363832 -7.191334 1.709471 0.000648 -8.172861 0.000249 -1.850245 -22.854244 -6.156071 -0.000738 0.001053 0.006617 -178.437424 -2.709658 -12.020078 13.155478 0.139282 -0.147159 -80.787231 -2.746537 -5.668651 -5.46269 1.503289 2.117936 -1.00247 0.000454 -0.00023 -1.199797 -4.939758 -3.58665 14.318612 0.082011 -0.16934 -78.665314 -7.300813 -6.010883 -5.442087 0.654211 1.673125 -0.999074 0.000675 0.000915 
0.0 0.0 0.0 0.0 -0.0 0.0 -5.679244 99.864143 -12.872603 87.671234 -0.198007 -6.143453 -5.172731 -0.078001 -0.304048 -12.391249 -0.92297 -0.941593 21.144323 -0.604228 -3.403597 18.356873 0.814013 3.134073 -2.493409 -0.55434 0.102133 -27.025169 0.661036 0.146933 -0.002473 -3.8e-05 0.0 -0.038541 -0.024834 -0.03793 0.101875 -0.028577 -0.022626 0.058423 -0.025085 -0.059429 -152.671982 -68.100044 166.447571 14.316819 -51.621243 22.049744 33.164421 0.548492 -0.114537 -0.035073 1.531981 12.633956 17.683901 -26.375578 52.477005 -19.495497 -14.424427 29.448071 -0.005257 -8.785238 -0.000698 16.25395 -18.41099 6.481112 -0.602844 -1.791071 -3.90833 -4.805615 -11.059463 -2.917649 0.002808 -21.000349 -0.012832 -5.042301 -25.071732 -4.012547 0.000675 0.010513 -0.000389 -10.631537 -5.682672 -3.567327 10.58612 -17.940073 -3.119085 0.009355 -13.850296 0.006765 -0.484045 -31.260696 -4.027542 -11.730209 -60.064945 8.271339 -13.988367 -7.143839 -2.894344 13.795731 -8.415739 -3.237855 0.34083 -34.280811 0.817657 -0.973996 -17.757204 2.652531 0.006881 0.002115 -0.010781 -17.342756 -20.105261 -4.219107 21.775553 -1.65672 3.882983 0.011161 -6.353467 -0.004867 -1.706171 -22.619728 -6.17737 0.013261 -0.001365 -0.011267 18.262741 -63.227043 178.241684 31.990007 -46.699188 12.069751 26.496346 -0.760476 0.073572 -2.959321 -2.342666 0.708279 22.19323 -20.397007 49.955444 -16.719753 -16.752279 28.506424 -0.009281 -12.688651 -0.008491 16.382423 -17.884083 2.606434 -0.113044 -1.519792 -4.274631 -5.034678 -5.610419 -2.964267 0.003458 -11.025714 0.00085 -6.106589 -15.89816 -3.830911 0.000319 0.011826 -0.004937 -10.295746 -5.676022 -4.34668 11.047977 -11.325539 -2.364542 -1.367131 -14.258485 -6.323501 -0.605737 -26.921427 -3.821333 -4.440418 -49.957905 -3.428857 -13.720655 -7.360843 -3.721085 18.155519 -14.057826 -3.255319 0.009278 -18.785297 0.002536 -0.424441 -8.445914 2.569247 0.003281 0.007746 0.008241 -15.912864 -20.090946 -5.484756 30.41733 -7.225826 1.736108 0.018937 -8.16206 -0.002212 -1.846197 -22.893061 -6.164805 -0.00425 0.014581 -0.018381 -178.322784 -2.95289 -11.799398 13.309443 0.126076 -0.157001 -81.132736 -2.588994 -5.708116 -5.513147 1.508434 2.107855 -1.000658 -0.000681 -8.3e-05 -0.921495 -4.685153 -3.513344 14.247577 0.106285 -0.165835 -78.920067 -7.671453 -5.980217 -5.477886 0.687372 1.676219 -1.002457 -0.007891 -0.002924 
